<mxfile host="app.diagrams.net" modified="2024-04-08T07:03:30.874Z" agent="Mozilla/5.0 (Windows NT 10.0; Win64; x64) AppleWebKit/537.36 (KHTML, like Gecko) Chrome/123.0.0.0 Safari/537.36 Edg/123.0.0.0" etag="Bp69wf8XmeT64JQ6d6JC" version="24.2.2" type="device">
  <diagram name="Page-1" id="58cdce13-f638-feb5-8d6f-7d28b1aa9fa0">
    <mxGraphModel dx="1386" dy="785" grid="1" gridSize="10" guides="1" tooltips="1" connect="1" arrows="1" fold="1" page="1" pageScale="1" pageWidth="1100" pageHeight="850" background="none" math="0" shadow="0">
      <root>
        <mxCell id="0" />
        <mxCell id="1" parent="0" />
        <mxCell id="2a3bc250acf0617d-8" value="Main" style="shape=umlFrame;whiteSpace=wrap;html=1;rounded=1;shadow=0;comic=0;labelBackgroundColor=none;strokeWidth=1;fontFamily=Verdana;fontSize=12;align=center;fontStyle=1" parent="1" vertex="1">
          <mxGeometry x="40" y="90" width="1170" height="855" as="geometry" />
        </mxCell>
        <mxCell id="2VK7c3jGOLDtSmd9nzvH-88" style="edgeStyle=elbowEdgeStyle;html=1;labelBackgroundColor=none;endArrow=open;endSize=8;strokeColor=#ff0000;fontFamily=Verdana;fontSize=12;align=left;exitX=0;exitY=0.25;exitDx=0;exitDy=0;endFill=0;entryX=0;entryY=0.5;entryDx=0;entryDy=0;elbow=horizontal;" parent="1" source="2VK7c3jGOLDtSmd9nzvH-48" target="2VK7c3jGOLDtSmd9nzvH-37" edge="1">
          <mxGeometry relative="1" as="geometry">
            <mxPoint x="460" y="865" as="sourcePoint" />
            <mxPoint x="480" y="700" as="targetPoint" />
            <Array as="points">
              <mxPoint x="280" y="780" />
            </Array>
          </mxGeometry>
        </mxCell>
        <mxCell id="rHibrib5BSzGULZ56nKh-1" value="Cancel Payment" style="edgeLabel;html=1;align=center;verticalAlign=middle;resizable=0;points=[];" vertex="1" connectable="0" parent="2VK7c3jGOLDtSmd9nzvH-88">
          <mxGeometry x="0.1487" y="-2" relative="1" as="geometry">
            <mxPoint y="7" as="offset" />
          </mxGeometry>
        </mxCell>
        <mxCell id="2VK7c3jGOLDtSmd9nzvH-81" style="edgeStyle=orthogonalEdgeStyle;html=1;labelBackgroundColor=none;endArrow=open;endSize=8;strokeColor=#ff0000;fontFamily=Verdana;fontSize=12;align=left;entryX=0;entryY=0.5;entryDx=0;entryDy=0;exitX=0;exitY=0.25;exitDx=0;exitDy=0;" parent="1" source="2VK7c3jGOLDtSmd9nzvH-24" target="382b91b5511bd0f7-6" edge="1">
          <mxGeometry relative="1" as="geometry">
            <mxPoint x="330" y="400" as="sourcePoint" />
            <mxPoint x="400" y="380" as="targetPoint" />
            <Array as="points">
              <mxPoint x="150" y="385" />
              <mxPoint x="150" y="150" />
            </Array>
          </mxGeometry>
        </mxCell>
        <mxCell id="2VK7c3jGOLDtSmd9nzvH-77" style="edgeStyle=elbowEdgeStyle;html=1;labelBackgroundColor=none;endArrow=none;endSize=8;strokeColor=#ff0000;fontFamily=Verdana;fontSize=12;align=left;entryX=0.25;entryY=0;entryDx=0;entryDy=0;elbow=vertical;endFill=0;" parent="1" target="2VK7c3jGOLDtSmd9nzvH-73" edge="1">
          <mxGeometry relative="1" as="geometry">
            <mxPoint x="310" y="440" as="sourcePoint" />
            <mxPoint x="490" y="550" as="targetPoint" />
            <Array as="points">
              <mxPoint x="440" y="470" />
            </Array>
          </mxGeometry>
        </mxCell>
        <mxCell id="2VK7c3jGOLDtSmd9nzvH-22" style="edgeStyle=orthogonalEdgeStyle;html=1;labelBackgroundColor=none;endArrow=open;endSize=8;strokeColor=#ff0000;fontFamily=Verdana;fontSize=12;align=left;exitX=0;exitY=0.5;exitDx=0;exitDy=0;entryX=0;entryY=0.5;entryDx=0;entryDy=0;" parent="1" source="382b91b5511bd0f7-7" target="382b91b5511bd0f7-6" edge="1">
          <mxGeometry relative="1" as="geometry">
            <mxPoint x="310" y="160" as="sourcePoint" />
            <mxPoint x="400" y="280" as="targetPoint" />
            <Array as="points">
              <mxPoint x="150" y="230" />
              <mxPoint x="150" y="150" />
            </Array>
          </mxGeometry>
        </mxCell>
        <mxCell id="382b91b5511bd0f7-1" value="" style="ellipse;html=1;shape=startState;fillColor=#000000;strokeColor=#ff0000;rounded=1;shadow=0;comic=0;labelBackgroundColor=none;fontFamily=Verdana;fontSize=12;fontColor=#000000;align=center;direction=south;" parent="1" vertex="1">
          <mxGeometry x="70" y="135" width="30" height="30" as="geometry" />
        </mxCell>
        <mxCell id="382b91b5511bd0f7-5" value="Requesting Login Details" style="rounded=1;whiteSpace=wrap;html=1;arcSize=24;fillColor=#d5e8d4;strokeColor=#82b366;shadow=0;comic=0;labelBackgroundColor=none;fontFamily=Verdana;fontSize=12;align=center;" parent="1" vertex="1">
          <mxGeometry x="180" y="270" width="120" height="60" as="geometry" />
        </mxCell>
        <mxCell id="382b91b5511bd0f7-6" value="Requesting Login or Register Account" style="rounded=1;whiteSpace=wrap;html=1;arcSize=24;fillColor=#d5e8d4;strokeColor=#82b366;shadow=0;comic=0;labelBackgroundColor=none;fontFamily=Verdana;fontSize=12;align=center;" parent="1" vertex="1">
          <mxGeometry x="180" y="120" width="120" height="60" as="geometry" />
        </mxCell>
        <mxCell id="382b91b5511bd0f7-7" value="Requesting Input From User for Account Generation" style="rounded=1;whiteSpace=wrap;html=1;arcSize=24;fillColor=#d5e8d4;strokeColor=#82b366;shadow=0;comic=0;labelBackgroundColor=none;fontFamily=Verdana;fontSize=12;align=center;" parent="1" vertex="1">
          <mxGeometry x="330" y="200" width="120" height="60" as="geometry" />
        </mxCell>
        <mxCell id="382b91b5511bd0f7-9" value="Activity" style="rounded=1;whiteSpace=wrap;html=1;arcSize=24;fillColor=#ffffc0;strokeColor=#ff0000;shadow=0;comic=0;labelBackgroundColor=none;fontFamily=Verdana;fontSize=12;fontColor=#000000;align=center;" parent="1" vertex="1">
          <mxGeometry x="1050" y="310" width="120" height="60" as="geometry" />
        </mxCell>
        <mxCell id="3cde6dad864a17aa-5" style="edgeStyle=elbowEdgeStyle;html=1;labelBackgroundColor=none;endArrow=open;endSize=8;strokeColor=#ff0000;fontFamily=Verdana;fontSize=12;align=left;" parent="1" target="382b91b5511bd0f7-9" edge="1">
          <mxGeometry relative="1" as="geometry">
            <mxPoint x="1110" y="495" as="sourcePoint" />
          </mxGeometry>
        </mxCell>
        <mxCell id="2a3bc250acf0617d-9" style="edgeStyle=orthogonalEdgeStyle;html=1;labelBackgroundColor=none;endArrow=open;endSize=8;strokeColor=#ff0000;fontFamily=Verdana;fontSize=12;align=left;" parent="1" source="382b91b5511bd0f7-1" target="382b91b5511bd0f7-6" edge="1">
          <mxGeometry relative="1" as="geometry" />
        </mxCell>
        <mxCell id="2VK7c3jGOLDtSmd9nzvH-6" style="edgeStyle=orthogonalEdgeStyle;html=1;labelBackgroundColor=none;endArrow=open;endSize=8;strokeColor=#ff0000;fontFamily=Verdana;fontSize=12;align=left;exitX=1;exitY=0.5;exitDx=0;exitDy=0;entryX=0.5;entryY=0;entryDx=0;entryDy=0;" parent="1" source="382b91b5511bd0f7-6" target="382b91b5511bd0f7-7" edge="1">
          <mxGeometry relative="1" as="geometry">
            <mxPoint x="120" y="170" as="sourcePoint" />
            <mxPoint x="200" y="170" as="targetPoint" />
          </mxGeometry>
        </mxCell>
        <mxCell id="2VK7c3jGOLDtSmd9nzvH-20" value="Register Account Option" style="edgeLabel;html=1;align=center;verticalAlign=middle;resizable=0;points=[];" parent="2VK7c3jGOLDtSmd9nzvH-6" vertex="1" connectable="0">
          <mxGeometry x="-0.275" y="3" relative="1" as="geometry">
            <mxPoint x="39" y="33" as="offset" />
          </mxGeometry>
        </mxCell>
        <mxCell id="2VK7c3jGOLDtSmd9nzvH-18" style="edgeStyle=orthogonalEdgeStyle;html=1;labelBackgroundColor=none;endArrow=open;endSize=8;strokeColor=#ff0000;fontFamily=Verdana;fontSize=12;align=left;exitX=0;exitY=0.5;exitDx=0;exitDy=0;entryX=0;entryY=0.5;entryDx=0;entryDy=0;" parent="1" source="382b91b5511bd0f7-5" target="382b91b5511bd0f7-6" edge="1">
          <mxGeometry relative="1" as="geometry">
            <mxPoint x="250" y="190" as="sourcePoint" />
            <mxPoint x="250" y="280" as="targetPoint" />
            <Array as="points">
              <mxPoint x="150" y="300" />
              <mxPoint x="150" y="150" />
            </Array>
          </mxGeometry>
        </mxCell>
        <mxCell id="2VK7c3jGOLDtSmd9nzvH-19" value="Go Back" style="edgeLabel;html=1;align=center;verticalAlign=middle;resizable=0;points=[];" parent="2VK7c3jGOLDtSmd9nzvH-18" vertex="1" connectable="0">
          <mxGeometry x="-0.1111" y="-1" relative="1" as="geometry">
            <mxPoint y="-57" as="offset" />
          </mxGeometry>
        </mxCell>
        <mxCell id="2VK7c3jGOLDtSmd9nzvH-24" value="Logged In.&lt;div&gt;Presenting options based on account type&lt;/div&gt;" style="rounded=1;whiteSpace=wrap;html=1;arcSize=24;fillColor=#d5e8d4;strokeColor=#82b366;shadow=0;comic=0;labelBackgroundColor=none;fontFamily=Verdana;fontSize=12;align=center;" parent="1" vertex="1">
          <mxGeometry x="330" y="370" width="120" height="60" as="geometry" />
        </mxCell>
        <mxCell id="2VK7c3jGOLDtSmd9nzvH-26" style="edgeStyle=orthogonalEdgeStyle;html=1;labelBackgroundColor=none;endArrow=open;endSize=8;strokeColor=#ff0000;fontFamily=Verdana;fontSize=12;align=left;exitX=0.5;exitY=1;exitDx=0;exitDy=0;entryX=0.5;entryY=0;entryDx=0;entryDy=0;" parent="1" source="382b91b5511bd0f7-5" target="2VK7c3jGOLDtSmd9nzvH-24" edge="1">
          <mxGeometry relative="1" as="geometry">
            <mxPoint x="250" y="190" as="sourcePoint" />
            <mxPoint x="250" y="280" as="targetPoint" />
          </mxGeometry>
        </mxCell>
        <mxCell id="2VK7c3jGOLDtSmd9nzvH-27" value="Valid Details" style="edgeLabel;html=1;align=center;verticalAlign=middle;resizable=0;points=[];" parent="2VK7c3jGOLDtSmd9nzvH-26" vertex="1" connectable="0">
          <mxGeometry x="-0.1111" y="-1" relative="1" as="geometry">
            <mxPoint x="6" y="-1" as="offset" />
          </mxGeometry>
        </mxCell>
        <mxCell id="2VK7c3jGOLDtSmd9nzvH-29" style="edgeStyle=orthogonalEdgeStyle;html=1;labelBackgroundColor=none;endArrow=open;endSize=8;strokeColor=#ff0000;fontFamily=Verdana;fontSize=12;align=left;exitX=0.5;exitY=1;exitDx=0;exitDy=0;entryX=0.5;entryY=0;entryDx=0;entryDy=0;" parent="1" source="382b91b5511bd0f7-7" target="2VK7c3jGOLDtSmd9nzvH-24" edge="1">
          <mxGeometry relative="1" as="geometry">
            <mxPoint x="250" y="340" as="sourcePoint" />
            <mxPoint x="390" y="380" as="targetPoint" />
          </mxGeometry>
        </mxCell>
        <mxCell id="2VK7c3jGOLDtSmd9nzvH-32" value="Selecting a show" style="rounded=1;whiteSpace=wrap;html=1;arcSize=24;fillColor=#d5e8d4;strokeColor=#82b366;shadow=0;comic=0;labelBackgroundColor=none;fontFamily=Verdana;fontSize=12;align=center;" parent="1" vertex="1">
          <mxGeometry x="330" y="520" width="120" height="60" as="geometry" />
        </mxCell>
        <mxCell id="2VK7c3jGOLDtSmd9nzvH-36" value="Automatic Seat Selection Interface" style="rounded=1;whiteSpace=wrap;html=1;arcSize=24;fillColor=#d5e8d4;strokeColor=#82b366;shadow=0;comic=0;labelBackgroundColor=none;fontFamily=Verdana;fontSize=12;align=center;" parent="1" vertex="1">
          <mxGeometry x="110" y="620" width="120" height="60" as="geometry" />
        </mxCell>
        <mxCell id="2VK7c3jGOLDtSmd9nzvH-37" value="Interactive Seat Selection Interface" style="rounded=1;whiteSpace=wrap;html=1;arcSize=24;fillColor=#d5e8d4;strokeColor=#82b366;shadow=0;comic=0;labelBackgroundColor=none;fontFamily=Verdana;fontSize=12;align=center;" parent="1" vertex="1">
          <mxGeometry x="330" y="700" width="120" height="60" as="geometry" />
        </mxCell>
        <mxCell id="2VK7c3jGOLDtSmd9nzvH-39" style="edgeStyle=elbowEdgeStyle;html=1;labelBackgroundColor=none;endArrow=open;endSize=8;strokeColor=#ff0000;fontFamily=Verdana;fontSize=12;align=left;exitX=0;exitY=0.5;exitDx=0;exitDy=0;entryX=0.5;entryY=0;entryDx=0;entryDy=0;" parent="1" source="2VK7c3jGOLDtSmd9nzvH-32" target="2VK7c3jGOLDtSmd9nzvH-36" edge="1">
          <mxGeometry relative="1" as="geometry">
            <mxPoint x="400" y="440" as="sourcePoint" />
            <mxPoint x="400" y="530" as="targetPoint" />
            <Array as="points">
              <mxPoint x="170" y="600" />
            </Array>
          </mxGeometry>
        </mxCell>
        <mxCell id="2VK7c3jGOLDtSmd9nzvH-44" style="edgeStyle=elbowEdgeStyle;html=1;labelBackgroundColor=none;endArrow=open;endSize=8;strokeColor=#ff0000;fontFamily=Verdana;fontSize=12;align=left;exitX=1;exitY=0.5;exitDx=0;exitDy=0;entryX=0.5;entryY=0;entryDx=0;entryDy=0;" parent="1" source="2VK7c3jGOLDtSmd9nzvH-36" target="2VK7c3jGOLDtSmd9nzvH-37" edge="1">
          <mxGeometry relative="1" as="geometry">
            <mxPoint x="350" y="570" as="sourcePoint" />
            <mxPoint x="250" y="640" as="targetPoint" />
            <Array as="points">
              <mxPoint x="390" y="680" />
            </Array>
          </mxGeometry>
        </mxCell>
        <mxCell id="2VK7c3jGOLDtSmd9nzvH-52" value="Manual Seat Selection" style="edgeLabel;html=1;align=center;verticalAlign=middle;resizable=0;points=[];" parent="2VK7c3jGOLDtSmd9nzvH-44" vertex="1" connectable="0">
          <mxGeometry x="-0.6133" y="2" relative="1" as="geometry">
            <mxPoint x="29" y="2" as="offset" />
          </mxGeometry>
        </mxCell>
        <mxCell id="2VK7c3jGOLDtSmd9nzvH-48" value="Payment" style="rounded=1;whiteSpace=wrap;html=1;arcSize=24;fillColor=#ffffc0;strokeColor=#ff0000;shadow=0;comic=0;labelBackgroundColor=none;fontFamily=Verdana;fontSize=12;fontColor=#000000;align=center;" parent="1" vertex="1">
          <mxGeometry x="330" y="810" width="120" height="60" as="geometry" />
        </mxCell>
        <mxCell id="2VK7c3jGOLDtSmd9nzvH-49" style="edgeStyle=elbowEdgeStyle;html=1;labelBackgroundColor=none;endArrow=open;endSize=8;strokeColor=#ff0000;fontFamily=Verdana;fontSize=12;align=left;exitX=0.5;exitY=1;exitDx=0;exitDy=0;entryX=0.5;entryY=0;entryDx=0;entryDy=0;" parent="1" source="2VK7c3jGOLDtSmd9nzvH-37" target="2VK7c3jGOLDtSmd9nzvH-48" edge="1">
          <mxGeometry relative="1" as="geometry">
            <mxPoint x="470" y="760" as="sourcePoint" />
            <mxPoint x="470" y="810" as="targetPoint" />
            <Array as="points">
              <mxPoint x="390" y="790" />
            </Array>
          </mxGeometry>
        </mxCell>
        <mxCell id="2VK7c3jGOLDtSmd9nzvH-54" style="edgeStyle=elbowEdgeStyle;html=1;labelBackgroundColor=none;endArrow=none;endSize=8;strokeColor=#ff0000;fontFamily=Verdana;fontSize=12;align=left;exitX=1;exitY=0.75;exitDx=0;exitDy=0;endFill=0;" parent="1" source="2VK7c3jGOLDtSmd9nzvH-48" edge="1">
          <mxGeometry relative="1" as="geometry">
            <mxPoint x="310" y="670" as="sourcePoint" />
            <mxPoint x="450" y="470" as="targetPoint" />
            <Array as="points">
              <mxPoint x="510" y="690" />
            </Array>
          </mxGeometry>
        </mxCell>
        <mxCell id="2VK7c3jGOLDtSmd9nzvH-87" value="Complete Payment" style="edgeLabel;html=1;align=center;verticalAlign=middle;resizable=0;points=[];" parent="2VK7c3jGOLDtSmd9nzvH-54" vertex="1" connectable="0">
          <mxGeometry x="-0.3246" relative="1" as="geometry">
            <mxPoint y="-244" as="offset" />
          </mxGeometry>
        </mxCell>
        <mxCell id="2VK7c3jGOLDtSmd9nzvH-43" style="edgeStyle=elbowEdgeStyle;html=1;labelBackgroundColor=none;endArrow=open;endSize=8;strokeColor=#ff0000;fontFamily=Verdana;fontSize=12;align=left;exitX=0.5;exitY=1;exitDx=0;exitDy=0;entryX=0.5;entryY=0;entryDx=0;entryDy=0;jumpStyle=arc;" parent="1" source="2VK7c3jGOLDtSmd9nzvH-32" target="2VK7c3jGOLDtSmd9nzvH-37" edge="1">
          <mxGeometry relative="1" as="geometry">
            <mxPoint x="340" y="560" as="sourcePoint" />
            <mxPoint x="240" y="630" as="targetPoint" />
            <Array as="points">
              <mxPoint x="390" y="600" />
            </Array>
          </mxGeometry>
        </mxCell>
        <mxCell id="2VK7c3jGOLDtSmd9nzvH-62" style="edgeStyle=elbowEdgeStyle;html=1;labelBackgroundColor=none;endArrow=open;endSize=8;strokeColor=#ff0000;fontFamily=Verdana;fontSize=12;align=left;exitX=1;exitY=0.5;exitDx=0;exitDy=0;entryX=1;entryY=0.5;entryDx=0;entryDy=0;" parent="1" source="2VK7c3jGOLDtSmd9nzvH-37" target="2VK7c3jGOLDtSmd9nzvH-32" edge="1">
          <mxGeometry relative="1" as="geometry">
            <mxPoint x="330" y="690" as="sourcePoint" />
            <mxPoint x="430" y="740" as="targetPoint" />
            <Array as="points">
              <mxPoint x="480" y="640" />
            </Array>
          </mxGeometry>
        </mxCell>
        <mxCell id="2VK7c3jGOLDtSmd9nzvH-4" style="edgeStyle=orthogonalEdgeStyle;html=1;labelBackgroundColor=none;endArrow=open;endSize=8;strokeColor=#ff0000;fontFamily=Verdana;fontSize=12;align=left;exitX=0.5;exitY=1;exitDx=0;exitDy=0;entryX=0.5;entryY=0;entryDx=0;entryDy=0;jumpStyle=arc;" parent="1" source="382b91b5511bd0f7-6" target="382b91b5511bd0f7-5" edge="1">
          <mxGeometry relative="1" as="geometry">
            <mxPoint x="110" y="160" as="sourcePoint" />
            <mxPoint x="190" y="160" as="targetPoint" />
          </mxGeometry>
        </mxCell>
        <mxCell id="2VK7c3jGOLDtSmd9nzvH-16" value="Log In Option" style="edgeLabel;html=1;align=center;verticalAlign=middle;resizable=0;points=[];" parent="2VK7c3jGOLDtSmd9nzvH-4" vertex="1" connectable="0">
          <mxGeometry x="-0.1111" y="-1" relative="1" as="geometry">
            <mxPoint x="1" y="-10" as="offset" />
          </mxGeometry>
        </mxCell>
        <mxCell id="2VK7c3jGOLDtSmd9nzvH-70" style="edgeStyle=elbowEdgeStyle;html=1;labelBackgroundColor=none;endArrow=open;endSize=8;strokeColor=#ff0000;fontFamily=Verdana;fontSize=12;align=left;exitX=0;exitY=0.25;exitDx=0;exitDy=0;elbow=vertical;" parent="1" source="2VK7c3jGOLDtSmd9nzvH-32" target="2VK7c3jGOLDtSmd9nzvH-24" edge="1">
          <mxGeometry relative="1" as="geometry">
            <mxPoint x="400" y="440" as="sourcePoint" />
            <mxPoint x="400" y="530" as="targetPoint" />
            <Array as="points">
              <mxPoint x="310" y="490" />
            </Array>
          </mxGeometry>
        </mxCell>
        <mxCell id="2VK7c3jGOLDtSmd9nzvH-72" value="Go Back" style="edgeLabel;html=1;align=center;verticalAlign=middle;resizable=0;points=[];" parent="2VK7c3jGOLDtSmd9nzvH-70" vertex="1" connectable="0">
          <mxGeometry x="0.1785" y="-1" relative="1" as="geometry">
            <mxPoint as="offset" />
          </mxGeometry>
        </mxCell>
        <mxCell id="2VK7c3jGOLDtSmd9nzvH-73" value="Cancelling a show" style="rounded=1;whiteSpace=wrap;html=1;arcSize=24;fillColor=#ffffc0;strokeColor=#ff0000;shadow=0;comic=0;labelBackgroundColor=none;fontFamily=Verdana;fontSize=12;fontColor=#000000;align=center;" parent="1" vertex="1">
          <mxGeometry x="540" y="520" width="120" height="60" as="geometry" />
        </mxCell>
        <mxCell id="2VK7c3jGOLDtSmd9nzvH-74" style="edgeStyle=elbowEdgeStyle;html=1;labelBackgroundColor=none;endArrow=open;endSize=8;strokeColor=#ff0000;fontFamily=Verdana;fontSize=12;align=left;exitX=0.5;exitY=1;exitDx=0;exitDy=0;entryX=0.5;entryY=0;entryDx=0;entryDy=0;elbow=vertical;" parent="1" source="2VK7c3jGOLDtSmd9nzvH-24" target="2VK7c3jGOLDtSmd9nzvH-73" edge="1">
          <mxGeometry relative="1" as="geometry">
            <mxPoint x="400" y="440" as="sourcePoint" />
            <mxPoint x="400" y="530" as="targetPoint" />
            <Array as="points">
              <mxPoint x="500" y="440" />
            </Array>
          </mxGeometry>
        </mxCell>
        <mxCell id="2VK7c3jGOLDtSmd9nzvH-76" value="Cancel Show" style="edgeLabel;html=1;align=center;verticalAlign=middle;resizable=0;points=[];" parent="2VK7c3jGOLDtSmd9nzvH-74" vertex="1" connectable="0">
          <mxGeometry x="0.7694" y="-2" relative="1" as="geometry">
            <mxPoint x="12" y="4" as="offset" />
          </mxGeometry>
        </mxCell>
        <mxCell id="2VK7c3jGOLDtSmd9nzvH-33" style="edgeStyle=elbowEdgeStyle;html=1;labelBackgroundColor=none;endArrow=open;endSize=8;strokeColor=#ff0000;fontFamily=Verdana;fontSize=12;align=left;exitX=0.5;exitY=1;exitDx=0;exitDy=0;entryX=0.5;entryY=0;entryDx=0;entryDy=0;jumpStyle=arc;" parent="1" source="2VK7c3jGOLDtSmd9nzvH-24" target="2VK7c3jGOLDtSmd9nzvH-32" edge="1">
          <mxGeometry relative="1" as="geometry">
            <mxPoint x="800" y="505" as="sourcePoint" />
            <mxPoint x="800" y="380" as="targetPoint" />
          </mxGeometry>
        </mxCell>
        <mxCell id="2VK7c3jGOLDtSmd9nzvH-35" value="Book Show" style="edgeLabel;html=1;align=center;verticalAlign=middle;resizable=0;points=[];" parent="2VK7c3jGOLDtSmd9nzvH-33" vertex="1" connectable="0">
          <mxGeometry x="0.2667" relative="1" as="geometry">
            <mxPoint y="3" as="offset" />
          </mxGeometry>
        </mxCell>
        <mxCell id="2VK7c3jGOLDtSmd9nzvH-84" style="edgeStyle=elbowEdgeStyle;html=1;labelBackgroundColor=none;endArrow=open;endSize=8;strokeColor=#ff0000;fontFamily=Verdana;fontSize=12;align=left;exitX=0.5;exitY=1;exitDx=0;exitDy=0;entryX=0;entryY=0.5;entryDx=0;entryDy=0;" parent="1" source="2VK7c3jGOLDtSmd9nzvH-36" target="2VK7c3jGOLDtSmd9nzvH-48" edge="1">
          <mxGeometry relative="1" as="geometry">
            <mxPoint x="340" y="560" as="sourcePoint" />
            <mxPoint x="180" y="630" as="targetPoint" />
            <Array as="points">
              <mxPoint x="170" y="830" />
            </Array>
          </mxGeometry>
        </mxCell>
        <mxCell id="2VK7c3jGOLDtSmd9nzvH-86" value="Continue to&lt;div&gt;Payment&lt;/div&gt;" style="edgeLabel;html=1;align=center;verticalAlign=middle;resizable=0;points=[];" parent="2VK7c3jGOLDtSmd9nzvH-84" vertex="1" connectable="0">
          <mxGeometry x="-0.5529" relative="1" as="geometry">
            <mxPoint as="offset" />
          </mxGeometry>
        </mxCell>
        <mxCell id="2VK7c3jGOLDtSmd9nzvH-57" style="edgeStyle=elbowEdgeStyle;html=1;labelBackgroundColor=none;endArrow=open;endSize=8;strokeColor=#ff0000;fontFamily=Verdana;fontSize=12;align=left;exitX=1;exitY=0.25;exitDx=0;exitDy=0;entryX=1;entryY=0.5;entryDx=0;entryDy=0;elbow=horizontal;" parent="1" source="2VK7c3jGOLDtSmd9nzvH-36" target="2VK7c3jGOLDtSmd9nzvH-32" edge="1">
          <mxGeometry relative="1" as="geometry">
            <mxPoint x="320" y="680" as="sourcePoint" />
            <mxPoint x="420" y="730" as="targetPoint" />
            <Array as="points">
              <mxPoint x="480" y="590" />
            </Array>
          </mxGeometry>
        </mxCell>
        <mxCell id="2VK7c3jGOLDtSmd9nzvH-59" value="Cancel Selection" style="edgeLabel;html=1;align=center;verticalAlign=middle;resizable=0;points=[];" parent="2VK7c3jGOLDtSmd9nzvH-57" vertex="1" connectable="0">
          <mxGeometry x="0.1871" y="1" relative="1" as="geometry">
            <mxPoint x="14" y="-34" as="offset" />
          </mxGeometry>
        </mxCell>
      </root>
    </mxGraphModel>
  </diagram>
</mxfile>
